<svg width="126" height="111" viewBox="0 0 126 111" fill="none" xmlns="http://www.w3.org/2000/svg">
<rect width="126" height="111" fill="#E5E5E5"/>
<mask id="mask0" mask-type="alpha" maskUnits="userSpaceOnUse" x="-1292" y="-1485" width="2858" height="2652">
<path d="M364.394 -410.986L-97.5038 -681.067L-278.794 -316.424L-594.309 -173.289L-412.876 272.037C-409.529 280.254 -403.373 294.861 -395.123 311.588C-392.05 317.819 -381.782 338.607 -366.147 363.022C-359.755 373.005 -340.247 403.149 -309.041 436.407C-293.817 452.632 -261.696 484.951 -213.476 515.779C-171.134 542.849 -64.2152 602.526 85.4251 593.726C145.485 590.193 191.009 576.205 202.358 572.717L202.867 572.561C221.083 566.97 235.292 561.456 243.073 558.323C259.025 551.899 271.317 545.98 277.266 543.056C290.346 536.627 300.728 530.822 306.829 527.324C320.161 519.68 332.1 512.084 342.322 505.199C363.292 491.074 385.711 474.096 408.569 454.062C453.978 414.266 507.946 356.397 553.873 277.325L804.271 -153.781L373.895 -405.431L364.394 -410.986ZM513.213 -105.266L153.519 41.2789L121.89 25.5536L112.012 20.6424L111.995 20.67L111.569 20.4226L49.5911 -15.5761L-10.581 -50.5258L-310.847 -224.929C-292.293 -256.873 -270.394 -280.585 -250.537 -297.988C-240.454 -306.824 -229.182 -315.547 -216.328 -324.205C-210.163 -328.357 -201.525 -333.917 -190.56 -340.203C-185.643 -343.023 -176.211 -348.319 -163.827 -354.406C-161.06 -355.765 -156.73 -357.866 -151.16 -360.408C-145.454 -363.012 -138.445 -366.079 -130.483 -369.285C-122.811 -372.375 -108.693 -377.855 -90.5525 -383.423L-90.0372 -383.581C-78.7442 -387.052 -33.2872 -401.021 26.7149 -404.55C168.206 -412.871 271.419 -359.916 317.832 -331.356C320.463 -329.738 322.911 -328.198 325.173 -326.751C325.834 -326.329 326.492 -325.906 327.148 -325.482C374.104 -295.147 405.376 -263.648 420.199 -247.85C451.018 -215.006 470.082 -185.467 475.992 -176.238C490.381 -153.768 499.455 -135.358 501.608 -130.988L501.727 -130.748C507.67 -118.698 511.397 -109.723 513.213 -105.266Z" stroke="black" stroke-width="1000"/>
</mask>
<g mask="url(#mask0)">
<path d="M47.665 77H56.1221V62.8203H62.2939L69.8721 77H79.208L70.7119 61.4531C75.2627 59.5 77.7822 55.5351 77.7822 50.0664C77.7822 42.1172 72.5283 37 63.4463 37H47.665V77ZM56.1221 56.0234V43.914H61.8252C66.708 43.914 69.0713 46.082 69.0713 50.0664C69.0713 54.0312 66.708 56.0234 61.8643 56.0234H56.1221ZM119.052 51.0039C117.938 41.7656 110.946 36.4531 101.688 36.4531C91.1221 36.4531 83.0557 43.914 83.0557 57C83.0557 70.0468 90.9854 77.5468 101.688 77.5468C111.942 77.5468 118.134 70.7304 119.052 63.3672L110.497 63.3281C109.696 67.6054 106.337 70.0664 101.825 70.0664C95.751 70.0664 91.6299 65.5547 91.6299 57C91.6299 48.6797 95.6924 43.9336 101.884 43.9336C106.513 43.9336 109.853 46.6093 110.497 51.0039H119.052Z" fill="black"/>
</g>
<path d="M75.5457 16.476C74.4894 16.6098 73.9835 15.2197 74.8786 14.6432L91.0276 4.2428C91.567 3.89542 92.2893 4.13863 92.5087 4.74151L95.4159 12.7287C95.6353 13.3316 95.2383 13.9822 94.6018 14.0628L75.5457 16.476Z" fill="#95341A"/>
<path d="M44.186 93.524C45.2423 93.3902 45.7482 94.7803 44.8531 95.3568L28.7041 105.757C28.1647 106.105 27.4424 105.861 27.223 105.258L24.3159 97.2713C24.0964 96.6684 24.4934 96.0178 25.1299 95.9372L44.186 93.524Z" fill="#FFB900"/>
<mask id="mask1" mask-type="alpha" maskUnits="userSpaceOnUse" x="-1255" y="-1191" width="2580" height="2576">
<rect x="687.645" y="409.706" width="1026.96" height="1020.07" transform="rotate(160.796 687.645 409.706)" stroke="black" stroke-width="1000"/>
</mask>
<g mask="url(#mask1)">
<mask id="mask2" mask-type="alpha" maskUnits="userSpaceOnUse" x="-1206" y="-1276" width="2581" height="2577">
<rect x="738.006" y="325.524" width="1027.91" height="1020.99" transform="rotate(160.796 738.006 325.524)" stroke="black" stroke-width="1000"/>
</mask>
<g mask="url(#mask2)">
<path d="M40.9336 37H32.5156V62.1562H32.164L14.8984 37H7.47653V77H15.9336V51.8242H16.2265L33.6289 77H40.9336V37Z" fill="black"/>
<mask id="mask3" mask-type="alpha" maskUnits="userSpaceOnUse" x="-142" y="-114" width="336" height="339">
<rect x="122.444" y="33.2655" width="164.116" height="112.061" transform="rotate(132.497 122.444 33.2655)" stroke="black" stroke-width="100"/>
</mask>
<g mask="url(#mask3)">
<path d="M113.191 11.5934C115.033 13.8676 115.576 17.248 114.665 21.6783C113.757 26.0973 111.434 31.367 107.837 37.1565C100.65 48.7249 88.5273 62.1265 73.1547 74.575C57.782 87.0235 42.1529 96.095 29.3429 100.72C22.9321 103.035 17.2947 104.211 12.7834 104.181C8.26055 104.15 5.06692 102.916 3.22526 100.642C1.38359 98.3679 0.840664 94.9876 1.7514 90.5573C2.65984 86.1382 4.98246 80.8686 8.57937 75.0791C15.7666 63.5107 27.8893 50.1091 43.262 37.6606C58.6346 25.212 74.2638 16.1406 87.0737 11.5156C93.4845 9.20101 99.1219 8.02475 103.633 8.05494C108.156 8.08522 111.35 9.3191 113.191 11.5934Z" stroke="#5B706F" stroke-width="2.5"/>
</g>
</g>
</g>
</svg>
