<svg width="657" height="439" viewBox="0 0 657 439" fill="none" xmlns="http://www.w3.org/2000/svg">
<path d="M418.93 158.838C444.126 198.774 432.178 251.574 392.242 276.771C352.306 301.968 299.505 290.019 274.309 250.083C249.112 210.147 261.06 157.346 300.997 132.15C340.933 106.953 393.733 118.902 418.93 158.838ZM79.7889 372.811C92.0189 392.195 86.2193 417.823 66.8351 430.053C47.4509 442.283 21.8226 436.483 9.59264 417.099C-2.63733 397.715 3.16228 372.087 22.5464 359.857C41.9306 347.627 67.5589 353.426 79.7889 372.811ZM164.363 319.451C170.725 329.535 167.842 342.677 158.074 348.84C148.307 355.002 135.204 351.946 128.842 341.862C122.479 331.777 125.363 318.635 135.13 312.473C144.897 306.311 158 309.366 164.363 319.451ZM509.69 102.165C512.932 107.303 511.395 114.096 506.257 117.338C501.119 120.58 494.326 119.043 491.084 113.905C487.843 108.767 489.38 101.974 494.518 98.7319C499.656 95.4902 506.449 97.0275 509.69 102.165ZM650.929 13.0546C657.412 23.3305 654.338 36.9166 644.062 43.4C633.786 49.8833 620.2 46.8088 613.716 36.5329C607.233 26.257 610.308 12.6709 620.584 6.1875C630.86 -0.295858 644.446 2.77863 650.929 13.0546Z" stroke="#4554A5" stroke-width="5"/>
</svg>
