<svg width="282" height="48" viewBox="0 0 282 48" fill="none" xmlns="http://www.w3.org/2000/svg">
<path d="M6.22 11.172V17.052C6.22 17.64 6.36467 18.0927 6.654 18.41C6.94333 18.7273 7.368 18.886 7.928 18.886C8.488 18.886 8.91733 18.7273 9.216 18.41C9.51467 18.0927 9.664 17.64 9.664 17.052V11.172H12.058V17.038C12.058 17.9153 11.8713 18.6573 11.498 19.264C11.1247 19.8707 10.6207 20.328 9.986 20.636C9.36067 20.944 8.66067 21.098 7.886 21.098C7.11133 21.098 6.416 20.9487 5.8 20.65C5.19333 20.342 4.71267 19.8847 4.358 19.278C4.00333 18.662 3.826 17.9153 3.826 17.038V11.172H6.22ZM22.5311 21H20.1371L16.1331 14.938V21H13.7391V11.172H16.1331L20.1371 17.262V11.172H22.5311V21ZM26.6604 11.172V21H24.2664V11.172H26.6604ZM35.4653 11.172V13.09H32.8613V21H30.4673V13.09H27.8633V11.172H35.4653ZM39.0608 13.09V15.078H42.2668V16.926H39.0608V19.082H42.6868V21H36.6668V11.172H42.6868V13.09H39.0608ZM47.923 11.172C48.959 11.172 49.8644 11.3773 50.639 11.788C51.4137 12.1987 52.011 12.7773 52.431 13.524C52.8604 14.2613 53.075 15.1153 53.075 16.086C53.075 17.0473 52.8604 17.9013 52.431 18.648C52.011 19.3947 51.409 19.9733 50.625 20.384C49.8504 20.7947 48.9497 21 47.923 21H44.241V11.172H47.923ZM47.769 18.928C48.6744 18.928 49.379 18.6807 49.883 18.186C50.387 17.6913 50.639 16.9913 50.639 16.086C50.639 15.1807 50.387 14.476 49.883 13.972C49.379 13.468 48.6744 13.216 47.769 13.216H46.635V18.928H47.769ZM60.9357 21.098C60.2171 21.098 59.5731 20.9813 59.0037 20.748C58.4344 20.5147 57.9771 20.1693 57.6317 19.712C57.2957 19.2547 57.1184 18.704 57.0997 18.06H59.6477C59.6851 18.424 59.8111 18.704 60.0257 18.9C60.2404 19.0867 60.5204 19.18 60.8657 19.18C61.2204 19.18 61.5004 19.1007 61.7057 18.942C61.9111 18.774 62.0137 18.5453 62.0137 18.256C62.0137 18.0133 61.9297 17.8127 61.7617 17.654C61.6031 17.4953 61.4024 17.3647 61.1597 17.262C60.9264 17.1593 60.5904 17.0427 60.1517 16.912C59.5171 16.716 58.9991 16.52 58.5977 16.324C58.1964 16.128 57.8511 15.8387 57.5617 15.456C57.2724 15.0733 57.1277 14.574 57.1277 13.958C57.1277 13.0433 57.4591 12.3293 58.1217 11.816C58.7844 11.2933 59.6477 11.032 60.7117 11.032C61.7944 11.032 62.6671 11.2933 63.3297 11.816C63.9924 12.3293 64.3471 13.048 64.3937 13.972H61.8037C61.7851 13.6547 61.6684 13.4073 61.4537 13.23C61.2391 13.0433 60.9637 12.95 60.6277 12.95C60.3384 12.95 60.1051 13.0293 59.9277 13.188C59.7504 13.3373 59.6617 13.5567 59.6617 13.846C59.6617 14.1633 59.8111 14.4107 60.1097 14.588C60.4084 14.7653 60.8751 14.9567 61.5097 15.162C62.1444 15.3767 62.6577 15.582 63.0497 15.778C63.4511 15.974 63.7964 16.2587 64.0857 16.632C64.3751 17.0053 64.5197 17.486 64.5197 18.074C64.5197 18.634 64.3751 19.1427 64.0857 19.6C63.8057 20.0573 63.3951 20.4213 62.8537 20.692C62.3124 20.9627 61.6731 21.098 60.9357 21.098ZM73.063 11.172V13.09H70.459V21H68.065V13.09H65.461V11.172H73.063ZM80.3825 19.264H76.7145L76.1265 21H73.6205L77.1765 11.172H79.9485L83.5045 21H80.9705L80.3825 19.264ZM79.7665 17.416L78.5485 13.818L77.3445 17.416H79.7665ZM91.6568 11.172V13.09H89.0528V21H86.6588V13.09H84.0548V11.172H91.6568ZM95.2522 13.09V15.078H98.4582V16.926H95.2522V19.082H98.8782V21H92.8582V11.172H98.8782V13.09H95.2522ZM103.988 21.098C103.27 21.098 102.626 20.9813 102.056 20.748C101.487 20.5147 101.03 20.1693 100.684 19.712C100.348 19.2547 100.171 18.704 100.152 18.06H102.7C102.738 18.424 102.864 18.704 103.078 18.9C103.293 19.0867 103.573 19.18 103.918 19.18C104.273 19.18 104.553 19.1007 104.758 18.942C104.964 18.774 105.066 18.5453 105.066 18.256C105.066 18.0133 104.982 17.8127 104.814 17.654C104.656 17.4953 104.455 17.3647 104.212 17.262C103.979 17.1593 103.643 17.0427 103.204 16.912C102.57 16.716 102.052 16.52 101.65 16.324C101.249 16.128 100.904 15.8387 100.614 15.456C100.325 15.0733 100.18 14.574 100.18 13.958C100.18 13.0433 100.512 12.3293 101.174 11.816C101.837 11.2933 102.7 11.032 103.764 11.032C104.847 11.032 105.72 11.2933 106.382 11.816C107.045 12.3293 107.4 13.048 107.446 13.972H104.856C104.838 13.6547 104.721 13.4073 104.506 13.23C104.292 13.0433 104.016 12.95 103.68 12.95C103.391 12.95 103.158 13.0293 102.98 13.188C102.803 13.3373 102.714 13.5567 102.714 13.846C102.714 14.1633 102.864 14.4107 103.162 14.588C103.461 14.7653 103.928 14.9567 104.562 15.162C105.197 15.3767 105.71 15.582 106.102 15.778C106.504 15.974 106.849 16.2587 107.138 16.632C107.428 17.0053 107.572 17.486 107.572 18.074C107.572 18.634 107.428 19.1427 107.138 19.6C106.858 20.0573 106.448 20.4213 105.906 20.692C105.365 20.9627 104.726 21.098 103.988 21.098ZM120.805 21H118.411L114.407 14.938V21H112.013V11.172H114.407L118.411 17.262V11.172H120.805V21ZM128.658 19.264H124.99L124.402 21H121.896L125.452 11.172H128.224L131.78 21H129.246L128.658 19.264ZM128.042 17.416L126.824 13.818L125.62 17.416H128.042ZM139.932 11.172V13.09H137.328V21H134.934V13.09H132.33V11.172H139.932ZM143.528 11.172V21H141.134V11.172H143.528ZM149.911 21.098C148.987 21.098 148.137 20.8833 147.363 20.454C146.597 20.0247 145.986 19.4273 145.529 18.662C145.081 17.8873 144.857 17.0193 144.857 16.058C144.857 15.0967 145.081 14.2333 145.529 13.468C145.986 12.7027 146.597 12.1053 147.363 11.676C148.137 11.2467 148.987 11.032 149.911 11.032C150.835 11.032 151.679 11.2467 152.445 11.676C153.219 12.1053 153.826 12.7027 154.265 13.468C154.713 14.2333 154.937 15.0967 154.937 16.058C154.937 17.0193 154.713 17.8873 154.265 18.662C153.817 19.4273 153.21 20.0247 152.445 20.454C151.679 20.8833 150.835 21.098 149.911 21.098ZM149.911 18.914C150.695 18.914 151.32 18.6527 151.787 18.13C152.263 17.6073 152.501 16.9167 152.501 16.058C152.501 15.19 152.263 14.4993 151.787 13.986C151.32 13.4633 150.695 13.202 149.911 13.202C149.117 13.202 148.483 13.4587 148.007 13.972C147.54 14.4853 147.307 15.1807 147.307 16.058C147.307 16.926 147.54 17.6213 148.007 18.144C148.483 18.6573 149.117 18.914 149.911 18.914ZM165.06 21H162.666L158.662 14.938V21H156.268V11.172H158.662L162.666 17.262V11.172H165.06V21ZM172.914 19.264H169.246L168.658 21H166.152L169.708 11.172H172.48L176.036 21H173.502L172.914 19.264ZM172.298 17.416L171.08 13.818L169.876 17.416H172.298ZM179.512 19.152H182.648V21H177.118V11.172H179.512V19.152Z" fill="black"/>
<path d="M14.97 42.28H7.11L5.85 46H0.48L8.1 24.94H14.04L21.66 46H16.23L14.97 42.28ZM13.65 38.32L11.04 30.61L8.46 38.32H13.65ZM31.5991 46.21C30.0591 46.21 28.6791 45.96 27.4591 45.46C26.2391 44.96 25.2591 44.22 24.5191 43.24C23.7991 42.26 23.4191 41.08 23.3791 39.7H28.8391C28.9191 40.48 29.1891 41.08 29.6491 41.5C30.1091 41.9 30.7091 42.1 31.4491 42.1C32.2091 42.1 32.8091 41.93 33.2491 41.59C33.6891 41.23 33.9091 40.74 33.9091 40.12C33.9091 39.6 33.7291 39.17 33.3691 38.83C33.0291 38.49 32.5991 38.21 32.0791 37.99C31.5791 37.77 30.8591 37.52 29.9191 37.24C28.5591 36.82 27.4491 36.4 26.5891 35.98C25.7291 35.56 24.9891 34.94 24.3691 34.12C23.7491 33.3 23.4391 32.23 23.4391 30.91C23.4391 28.95 24.1491 27.42 25.5691 26.32C26.9891 25.2 28.8391 24.64 31.1191 24.64C33.4391 24.64 35.3091 25.2 36.7291 26.32C38.1491 27.42 38.9091 28.96 39.0091 30.94H33.4591C33.4191 30.26 33.1691 29.73 32.7091 29.35C32.2491 28.95 31.6591 28.75 30.9391 28.75C30.3191 28.75 29.8191 28.92 29.4391 29.26C29.0591 29.58 28.8691 30.05 28.8691 30.67C28.8691 31.35 29.1891 31.88 29.8291 32.26C30.4691 32.64 31.4691 33.05 32.8291 33.49C34.1891 33.95 35.2891 34.39 36.1291 34.81C36.9891 35.23 37.7291 35.84 38.3491 36.64C38.9691 37.44 39.2791 38.47 39.2791 39.73C39.2791 40.93 38.9691 42.02 38.3491 43C37.7491 43.98 36.8691 44.76 35.7091 45.34C34.5491 45.92 33.1791 46.21 31.5991 46.21ZM57.5862 24.94V29.05H52.0062V46H46.8762V29.05H41.2962V24.94H57.5862ZM70.9008 46L66.5208 38.05H65.2908V46H60.1608V24.94H68.7708C70.4308 24.94 71.8408 25.23 73.0008 25.81C74.1808 26.39 75.0608 27.19 75.6408 28.21C76.2208 29.21 76.5108 30.33 76.5108 31.57C76.5108 32.97 76.1108 34.22 75.3108 35.32C74.5308 36.42 73.3708 37.2 71.8308 37.66L76.6908 46H70.9008ZM65.2908 34.42H68.4708C69.4108 34.42 70.1108 34.19 70.5708 33.73C71.0508 33.27 71.2908 32.62 71.2908 31.78C71.2908 30.98 71.0508 30.35 70.5708 29.89C70.1108 29.43 69.4108 29.2 68.4708 29.2H65.2908V34.42ZM89.6911 46.21C87.7111 46.21 85.8911 45.75 84.2311 44.83C82.5911 43.91 81.2811 42.63 80.3011 40.99C79.3411 39.33 78.8611 37.47 78.8611 35.41C78.8611 33.35 79.3411 31.5 80.3011 29.86C81.2811 28.22 82.5911 26.94 84.2311 26.02C85.8911 25.1 87.7111 24.64 89.6911 24.64C91.6711 24.64 93.4811 25.1 95.1211 26.02C96.7811 26.94 98.0811 28.22 99.0211 29.86C99.9811 31.5 100.461 33.35 100.461 35.41C100.461 37.47 99.9811 39.33 99.0211 40.99C98.0611 42.63 96.7611 43.91 95.1211 44.83C93.4811 45.75 91.6711 46.21 89.6911 46.21ZM89.6911 41.53C91.3711 41.53 92.7111 40.97 93.7111 39.85C94.7311 38.73 95.2411 37.25 95.2411 35.41C95.2411 33.55 94.7311 32.07 93.7111 30.97C92.7111 29.85 91.3711 29.29 89.6911 29.29C87.9911 29.29 86.6311 29.84 85.6111 30.94C84.6111 32.04 84.1111 33.53 84.1111 35.41C84.1111 37.27 84.6111 38.76 85.6111 39.88C86.6311 40.98 87.9911 41.53 89.6911 41.53Z" fill="black"/>
<path d="M98.82 46.21C96.84 46.21 95.02 45.75 93.36 44.83C91.72 43.91 90.41 42.63 89.43 40.99C88.47 39.33 87.99 37.47 87.99 35.41C87.99 33.35 88.47 31.5 89.43 29.86C90.41 28.22 91.72 26.94 93.36 26.02C95.02 25.1 96.84 24.64 98.82 24.64C100.8 24.64 102.61 25.1 104.25 26.02C105.91 26.94 107.21 28.22 108.15 29.86C109.11 31.5 109.59 33.35 109.59 35.41C109.59 37.47 109.11 39.33 108.15 40.99C107.19 42.63 105.89 43.91 104.25 44.83C102.61 45.75 100.8 46.21 98.82 46.21ZM98.82 41.53C100.5 41.53 101.84 40.97 102.84 39.85C103.86 38.73 104.37 37.25 104.37 35.41C104.37 33.55 103.86 32.07 102.84 30.97C101.84 29.85 100.5 29.29 98.82 29.29C97.12 29.29 95.76 29.84 94.74 30.94C93.74 32.04 93.24 33.53 93.24 35.41C93.24 37.27 93.74 38.76 94.74 39.88C95.76 40.98 97.12 41.53 98.82 41.53ZM117.574 42.04H124.294V46H112.444V24.94H117.574V42.04ZM144.801 24.94L137.511 39.04V46H132.381V39.04L125.091 24.94H130.911L134.991 33.76L139.041 24.94H144.801ZM170.718 24.94V46H165.588V33.37L160.878 46H156.738L151.998 33.34V46H146.868V24.94H152.928L158.838 39.52L164.688 24.94H170.718ZM190.457 31.72C190.457 32.94 190.177 34.06 189.617 35.08C189.057 36.08 188.197 36.89 187.037 37.51C185.877 38.13 184.437 38.44 182.717 38.44H179.537V46H174.407V24.94H182.717C184.397 24.94 185.817 25.23 186.977 25.81C188.137 26.39 189.007 27.19 189.587 28.21C190.167 29.23 190.457 30.4 190.457 31.72ZM182.327 34.36C183.307 34.36 184.037 34.13 184.517 33.67C184.997 33.21 185.237 32.56 185.237 31.72C185.237 30.88 184.997 30.23 184.517 29.77C184.037 29.31 183.307 29.08 182.327 29.08H179.537V34.36H182.327ZM198.258 24.94V46H193.128V24.94H198.258ZM215.085 42.28H207.225L205.965 46H200.595L208.215 24.94H214.155L221.775 46H216.345L215.085 42.28ZM213.765 38.32L211.155 30.61L208.575 38.32H213.765ZM231.984 24.94C234.204 24.94 236.144 25.38 237.804 26.26C239.464 27.14 240.744 28.38 241.644 29.98C242.564 31.56 243.024 33.39 243.024 35.47C243.024 37.53 242.564 39.36 241.644 40.96C240.744 42.56 239.454 43.8 237.774 44.68C236.114 45.56 234.184 46 231.984 46H224.094V24.94H231.984ZM231.654 41.56C233.594 41.56 235.104 41.03 236.184 39.97C237.264 38.91 237.804 37.41 237.804 35.47C237.804 33.53 237.264 32.02 236.184 30.94C235.104 29.86 233.594 29.32 231.654 29.32H229.224V41.56H231.654Z" fill="black"/>
<path d="M250.517 41.0602C250.517 42.0184 249.739 42.7952 248.78 42.7952C247.822 42.7952 247.044 42.0184 247.044 41.0602C247.044 40.1021 247.822 39.3253 248.78 39.3253C249.739 39.3253 250.517 40.1021 250.517 41.0602Z" fill="black"/>
<path d="M248.202 41.0015L253.42 27.759L254.665 28.2488L249.446 41.4912L248.202 41.0015Z" fill="black"/>
<path d="M225.63 2.31325C225.63 3.59083 224.594 4.62651 223.315 4.62651C222.036 4.62651 221 3.59083 221 2.31325C221 1.03568 222.036 0 223.315 0C224.594 0 225.63 1.03568 225.63 2.31325Z" fill="black"/>
<path d="M251.095 13.012C251.095 14.1299 250.189 15.0361 249.07 15.0361C247.951 15.0361 247.044 14.1299 247.044 13.012C247.044 11.8942 247.951 10.988 249.07 10.988C250.189 10.988 251.095 11.8942 251.095 13.012Z" fill="black"/>
<path d="M256.304 28.6265C256.304 30.0638 255.138 31.2289 253.7 31.2289C252.261 31.2289 251.095 30.0638 251.095 28.6265C251.095 27.1892 252.261 26.0241 253.7 26.0241C255.138 26.0241 256.304 27.1892 256.304 28.6265Z" fill="black"/>
<path d="M267.879 45.3976C267.879 46.8349 266.713 48 265.275 48C263.837 48 262.671 46.8349 262.671 45.3976C262.671 43.9603 263.837 42.7952 265.275 42.7952C266.713 42.7952 267.879 43.9603 267.879 45.3976Z" fill="black"/>
<path d="M279.808 28.7608L278.574 32.7605L282 35.169L277.812 35.2324L276.578 39.2321L275.223 35.2716L271.035 35.335L274.386 32.8239L273.032 28.8634L276.457 31.2719L279.808 28.7608Z" fill="black"/>
<path d="M223.523 1.72626L249.275 12.1393L248.841 13.2115L223.089 2.79842L223.523 1.72626Z" fill="black"/>
<path d="M249.629 12.7355L254.359 28.0908L253.253 28.4311L248.522 13.0758L249.629 12.7355Z" fill="black"/>
<path d="M249.035 40.2959L265.469 44.5164L265.136 45.8109L248.702 41.5905L249.035 40.2959Z" fill="black"/>
<path d="M277.467 33.2912L265.969 45.7614L264.986 44.8558L276.483 32.3856L277.467 33.2912Z" fill="black"/>
<path d="M276.746 33.5193L253.472 29.0909L253.722 27.7779L276.996 32.2062L276.746 33.5193Z" fill="black"/>
</svg>
